<svg
	class="ms-3 pl-md-5 clc-logo"
	width="85"
	height="35"
	viewBox="0 90 405 205"
	xmlns="http://www.w3.org/2000/svg"
	xml:space="preserve"
	fill-rule="evenodd"
	clip-rule="evenodd"
	stroke-linecap="round"
	stroke-linejoin="round"
	stroke-miterlimit="1.5"
>
	<g transform="matrix(1,0,0,1,-268,-582)">
		<g
			transform="matrix(0.889073,0,0,0.889073,23.6854,334.464)"
		>
			<path
				d="M502,409.851C551.755,409.851 592.149,450.245 592.149,500C592.149,549.755 551.755,590.149 502,590.149C452.245,590.149 411.851,549.755 411.851,500C411.851,482.217 417.011,465.63 425.914,451.655C425.915,451.654 425.916,451.653 425.917,451.651C441.924,426.529 470.03,409.851 502,409.851Z"
				fill="none"
				stroke="black"
				stroke-width="14.06px"
			/>
		</g>
		<g transform="matrix(-1,0,0,1,940,0)">
			<path
				d="M457.114,720.264C461.263,719.329 465.576,718.851 470,718.851C503.197,718.851 530.149,745.803 530.149,779C530.149,812.197 503.197,839.149 470,839.149C436.803,839.149 409.851,812.197 409.851,779L409.902,777.575C436.47,771.789 456.484,748.401 457.114,720.264Z"
			/>
		</g>
		<g transform="matrix(1,0,0,1,-32,279)">
			<path
				d="M311,500C311,500 350.084,456.559 411.851,429.989"
				fill="none"
				stroke="black"
				stroke-width="16.67px"
			/>
		</g>
		<g transform="matrix(1,0,0,1,-32,279)">
			<path
				d="M592.149,428.134C624.694,442.105 658.594,465.02 693,500"
				fill="none"
				stroke="black"
				stroke-width="16.67px"
			/>
		</g>
		<g transform="matrix(1,0,0,-1,-32,1279)">
			<path
				d="M311,500C311,500 350.084,456.559 411.851,429.989"
				fill="none"
				stroke="black"
				stroke-width="16.67px"
			/>
		</g>
		<g transform="matrix(1,0,0,-1,-32,1279)">
			<path
				d="M592.149,428.134C624.694,442.105 658.594,465.02 693,500"
				fill="none"
				stroke="black"
				stroke-width="16.67px"
			/>
		</g>
	</g>
</svg>